<?xml version="1.0" encoding="UTF-8" standalone="no"?>
<!-- Created with Inkscape (http://www.inkscape.org/) -->

<svg
   width="182.86308mm"
   height="35.8521mm"
   viewBox="0 0 182.86308 35.8521"
   version="1.1"
   id="svg1"
   xmlns="http://www.w3.org/2000/svg"
   xmlns:svg="http://www.w3.org/2000/svg">
  <defs
     id="defs1" />
  <path
     d="M 0,27.431999 V 3.5095215e-7 H 6.0959998 L 21.450299,18.288 V 3.5095215e-7 h 5.9817 V 27.431999 h -6.096 L 5.9054998,9.0677999 V 27.431999 Z m 31.699226,0 V 3.5095215e-7 h 6.096 L 53.149525,18.288 V 3.5095215e-7 h 5.9817 V 27.431999 h -6.096 L 37.604726,9.0677999 V 27.431999 Z m 31.508727,0 v 0 -6.0579 L 81.572152,5.9436001 H 63.207953 V 3.5095215e-7 H 90.639952 V 6.0579001 l -18.3642,15.4304989 h 18.3642 v 5.9436 z"
     id="text1"
     style="font-size:38.1px;line-height:42.8625px;font-family:Orbitron;-inkscape-font-specification:'Orbitron, @wght=900';font-variation-settings:'wght' 900;letter-spacing:0px;fill:#ffffff;stroke-width:1.058"
     aria-label="NNZ" />
  <path
     d="m 114.6641,28.460699 q -2.6289,0 -4.7244,-1.1811 -2.0955,-1.2192 -3.3147,-3.5052 -1.2192,-2.286 -1.2192,-5.5245 0,-3.2766 1.2192,-5.5245 1.2573,-2.285999 3.3528,-3.4670994 2.0955,-1.1811 4.6863,-1.1811 2.8575,0 5.1054,1.2954 2.286,1.2573004 3.5814,3.5432994 1.2954,2.286 1.2954,5.334 0,3.0099 -1.2954,5.334 -1.2954,2.286 -3.5814,3.5814 -2.2479,1.2954 -5.1054,1.2954 z m -10.3251,-0.1905 V 0 h 2.7051 v 14.173199 l -0.381,4.0386 0.2667,4.0386 v 6.0198 z m 10.1346,-2.2098 q 2.1336,0 3.81,-0.9525 1.6764,-0.9906 2.667,-2.7432 0.9906,-1.7907 0.9906,-4.1148 0,-2.3622 -0.9906,-4.1148 -0.9906,-1.7526 -2.667,-2.7051 -1.6764,-0.990599 -3.81,-0.990599 -2.1336,0 -3.8481,0.990599 -1.6764,0.9525 -2.667,2.7051 -0.9525,1.7526 -0.9525,4.1148 0,2.3241 0.9525,4.1148 0.9906,1.7526 2.667,2.7432 1.7145,0.9525 3.8481,0.9525 z m 15.69718,2.2098 V 0 h 2.7051 v 28.270199 z m 18.40226,0.1905 q -2.8956,0 -5.2197,-1.2954 -2.286,-1.3335 -3.6195,-3.6195 -1.3335,-2.3241 -1.3335,-5.2959 0,-3.0099 1.3335,-5.2959 1.3335,-2.285999 3.6195,-3.5813994 2.286,-1.2954 5.2197,-1.2954 2.9718,0 5.2578,1.2954 2.3241,1.2954004 3.6195,3.5813994 1.3335,2.286 1.3335,5.2959 0,2.9718 -1.3335,5.2959 -1.2954,2.286 -3.6195,3.6195 -2.3241,1.2954 -5.2578,1.2954 z m 0,-2.4003 q 2.1717,0 3.8481,-0.9525 1.6764,-0.9906 2.6289,-2.7432 0.9906,-1.7907 0.9906,-4.1148 0,-2.3622 -0.9906,-4.1148 -0.9525,-1.7526 -2.6289,-2.7051 -1.6764,-0.990599 -3.81,-0.990599 -2.1336,0 -3.81,0.990599 -1.6764,0.9525 -2.667,2.7051 -0.9906,1.7526 -0.9906,4.1148 0,2.3241 0.9906,4.1148 0.9906,1.7526 2.667,2.7432 1.6764,0.9525 3.7719,0.9525 z m 24.26974,9.7917 q -2.7432,0 -5.2578,-0.8001 -2.5146,-0.8001 -4.0767,-2.286 l 1.3716,-2.0574 q 1.4097,1.2573 3.4671,1.9812 2.0955,0.762 4.4196,0.762 3.81,0 5.6007,-1.7907 1.7907,-1.7526 1.7907,-5.4864 v -4.9911 l 0.381,-3.429 -0.2667,-3.429 V 8.2676996 h 2.5908 V 25.831799 q 0,5.1816 -2.5527,7.5819 -2.5146,2.4384 -7.4676,2.4384 z m -0.4953,-8.3439 q -2.8575,0 -5.1435,-1.2192 -2.286,-1.2573 -3.6195,-3.4671 -1.2954,-2.2098 -1.2954,-5.0673 0,-2.8575 1.2954,-5.0292 1.3335,-2.209799 3.6195,-3.4289994 2.286,-1.2192 5.1435,-1.2192 2.667,0 4.8006,1.1049 2.1336,1.1049004 3.3909,3.2765994 1.2573,2.1717 1.2573,5.2959 0,3.1242 -1.2573,5.2959 -1.2573,2.1717 -3.3909,3.3147 -2.1336,1.143 -4.8006,1.143 z m 0.2667,-2.4003 q 2.2098,0 3.9243,-0.9144 1.7145,-0.9525 2.7051,-2.5908 0.9906,-1.6764 0.9906,-3.8481 0,-2.1717 -0.9906,-3.81 -0.9906,-1.6383 -2.7051,-2.5527 -1.7145,-0.952499 -3.9243,-0.952499 -2.1717,0 -3.9243,0.952499 -1.7145,0.9144 -2.7051,2.5527 -0.9525,1.6383 -0.9525,3.81 0,2.1717 0.9525,3.8481 0.9906,1.6383 2.7051,2.5908 1.7526,0.9144 3.9243,0.9144 z"
     id="text2"
     style="font-size:38.1px;line-height:42.8625px;font-family:Montserrat;-inkscape-font-specification:'Montserrat, Normal ';letter-spacing:0px;fill:#ffffff;stroke-width:1.058"
     aria-label="blog" />
</svg>
